<?xml version="1.0" standalone="no"?>
<!DOCTYPE svg PUBLIC "-//W3C//DTD SVG 20010904//EN"
 "http://www.w3.org/TR/2001/REC-SVG-20010904/DTD/svg10.dtd">
<svg version="1.0" xmlns="http://www.w3.org/2000/svg"
 width="1640.000000pt" height="1640.000000pt" viewBox="0 0 1640.000000 1640.000000"
 preserveAspectRatio="xMidYMid meet">
<metadata>
Created by potrace 1.14, written by Peter Selinger 2001-2017
</metadata>
<g transform="translate(0.000000,1640.000000) scale(0.100000,-0.100000)"
fill="#000000" stroke="none">
<path d="M8301 15638 c-24 -4 -47 -5 -52 -3 -4 3 -10 1 -13 -4 -4 -5 -22 -7
-41 -5 -30 4 -90 -7 -177 -31 -10 -3 -28 -7 -40 -10 -13 -3 -34 -9 -48 -15
-23 -9 -73 -22 -140 -36 -13 -3 -30 -10 -36 -15 -8 -7 -14 -6 -19 1 -5 7 -11
8 -19 1 -6 -5 -26 -12 -43 -16 -18 -3 -43 -9 -56 -14 -14 -6 -28 -7 -31 -4 -3
3 -12 1 -19 -5 -8 -7 -17 -9 -20 -5 -4 3 -7 1 -7 -6 0 -7 -4 -10 -9 -7 -7 5
-26 0 -91 -22 -8 -3 -18 -6 -22 -7 -5 -2 -10 -4 -13 -5 -6 -3 -9 -4 -60 -14
-22 -4 -44 -11 -50 -14 -13 -8 -29 -11 -85 -17 -25 -2 -65 -6 -90 -9 -25 -3
-65 -8 -90 -10 -56 -6 -72 -9 -87 -19 -7 -5 -13 -6 -13 -2 0 3 -15 -2 -32 -12
-18 -10 -41 -18 -50 -19 -10 -1 -24 -7 -33 -14 -8 -7 -15 -9 -15 -5 0 4 -7 1
-16 -6 -9 -7 -25 -14 -36 -16 -11 -2 -33 -12 -49 -24 -16 -11 -29 -18 -29 -15
0 4 -15 0 -34 -8 -19 -8 -37 -12 -40 -8 -3 3 -6 0 -6 -7 0 -7 -4 -10 -9 -6 -5
3 -12 1 -16 -5 -4 -6 -11 -8 -16 -5 -5 4 -9 1 -9 -5 0 -6 -4 -9 -9 -5 -5 3
-13 0 -16 -6 -4 -5 -13 -8 -21 -5 -8 3 -17 -1 -20 -9 -4 -8 -12 -15 -20 -15
-8 0 -22 -7 -31 -15 -10 -8 -22 -15 -26 -15 -4 1 -15 -6 -23 -15 -9 -8 -20
-13 -25 -10 -5 4 -6 -2 -2 -11 5 -13 3 -15 -7 -9 -8 5 -11 3 -8 -6 2 -7 -8
-25 -23 -40 -15 -15 -25 -30 -22 -33 4 -3 1 -6 -5 -6 -7 0 -12 6 -13 13 0 6
-5 2 -11 -11 -7 -13 -17 -21 -25 -18 -7 3 -13 1 -13 -5 0 -5 -11 -14 -25 -19
-14 -5 -25 -14 -25 -20 0 -5 -5 -10 -11 -10 -5 0 -7 6 -3 13 4 6 -3 2 -15 -10
-12 -13 -26 -23 -32 -23 -6 0 -7 -6 -3 -12 6 -10 5 -10 -8 -1 -17 15 -29 8
-22 -12 4 -9 -2 -13 -19 -11 -20 2 -25 -1 -22 -15 3 -13 -1 -16 -12 -12 -12 5
-14 3 -8 -7 6 -10 4 -12 -8 -7 -12 4 -17 1 -17 -9 0 -11 -6 -14 -16 -10 -12 4
-14 1 -9 -14 4 -11 3 -20 -2 -19 -20 3 -34 -2 -28 -11 3 -5 -1 -10 -10 -10 -9
0 -13 -4 -10 -10 3 -5 -1 -10 -10 -10 -11 0 -15 -5 -11 -15 3 -9 0 -15 -10
-15 -9 0 -12 -5 -8 -12 5 -7 2 -9 -8 -6 -8 4 -15 0 -15 -8 0 -7 5 -11 11 -8 6
3 0 -3 -13 -14 -13 -10 -21 -24 -17 -30 4 -7 -1 -9 -15 -7 -17 4 -19 2 -9 -10
10 -12 9 -15 -4 -15 -9 0 -16 -5 -16 -11 0 -5 -5 -7 -12 -3 -7 4 -8 3 -4 -4 8
-13 -27 -35 -40 -24 -5 4 -2 -1 5 -10 12 -17 8 -23 -12 -19 -5 1 -11 -8 -14
-19 -3 -11 -10 -20 -15 -20 -5 0 -6 -6 -2 -12 6 -10 5 -10 -7 -1 -13 10 -16
10 -17 -2 -1 -8 -3 -21 -4 -29 -1 -8 -7 -12 -14 -9 -6 2 -15 -1 -20 -8 -5 -8
-3 -10 7 -5 8 4 4 -1 -8 -12 -17 -15 -19 -22 -10 -31 9 -9 8 -11 -7 -5 -16 6
-18 4 -13 -11 6 -14 5 -16 -7 -6 -11 9 -14 9 -13 -1 1 -33 -4 -48 -15 -46 -8
2 -13 -6 -12 -18 0 -14 -4 -20 -13 -17 -9 3 -13 -3 -13 -20 0 -14 -5 -29 -11
-32 -6 -4 -8 -13 -5 -21 3 -8 -1 -14 -10 -14 -8 0 -12 -5 -9 -10 3 -6 -1 -13
-9 -16 -8 -3 -18 -14 -21 -24 -3 -11 -12 -17 -19 -14 -9 4 -13 -3 -11 -20 2
-15 -2 -26 -9 -26 -15 0 -48 -55 -38 -65 4 -5 1 -5 -5 -1 -8 4 -13 1 -13 -9 0
-9 -4 -13 -10 -10 -5 3 -10 -1 -10 -10 0 -8 -7 -18 -15 -21 -8 -4 -13 -10 -10
-14 3 -4 -8 -22 -24 -39 -16 -17 -26 -31 -23 -31 4 0 -2 -7 -12 -15 -11 -8
-16 -15 -11 -15 5 0 0 -7 -11 -15 -10 -8 -15 -15 -11 -15 4 0 -6 -13 -22 -29
-16 -16 -27 -32 -24 -35 4 -3 1 -6 -6 -6 -7 0 -9 -4 -6 -10 3 -5 1 -10 -5 -10
-7 0 -10 -6 -7 -14 4 -10 0 -13 -14 -11 -11 2 -17 0 -14 -6 4 -5 -1 -16 -9
-25 -9 -9 -14 -20 -11 -25 4 -5 2 -9 -4 -9 -5 0 -12 6 -14 13 -4 9 -6 9 -6 0
-1 -6 4 -15 9 -18 6 -4 1 -15 -12 -26 -13 -12 -16 -18 -8 -14 8 4 7 0 -4 -9
-11 -9 -17 -23 -13 -35 3 -11 2 -20 -2 -19 -18 2 -22 -3 -12 -16 9 -10 8 -16
-4 -26 -8 -7 -15 -19 -15 -26 0 -8 -4 -14 -10 -14 -5 0 -9 -3 -8 -7 1 -5 -3
-18 -10 -31 -7 -12 -10 -27 -7 -32 3 -5 -3 -13 -12 -19 -10 -6 -15 -11 -10
-11 8 0 -53 -113 -65 -118 -4 -2 -8 -10 -8 -17 0 -7 -7 -16 -16 -19 -8 -3 -12
-10 -9 -16 3 -5 2 -10 -3 -10 -10 0 -37 -50 -33 -63 1 -5 -3 -6 -9 -2 -5 3
-10 0 -10 -8 0 -8 -7 -20 -15 -27 -8 -7 -12 -17 -8 -24 4 -6 -2 -4 -12 4 -17
14 -18 14 -6 -9 7 -13 8 -21 3 -17 -6 3 -13 -3 -17 -14 -3 -11 -10 -20 -15
-20 -5 0 -7 -6 -4 -13 2 -7 -5 -23 -16 -35 -11 -12 -20 -24 -20 -27 1 -21 -1
-25 -10 -20 -6 4 -10 -5 -10 -20 0 -17 -4 -24 -12 -19 -7 5 -9 2 -5 -9 3 -8 0
-18 -7 -20 -8 -3 -12 -22 -12 -46 1 -23 -2 -41 -6 -41 -4 0 -5 -9 -3 -19 2
-11 -3 -25 -11 -32 -12 -10 -13 -7 -8 20 4 21 3 31 -5 31 -7 0 -10 -4 -7 -9 3
-5 -1 -12 -10 -15 -8 -3 -12 -10 -9 -16 3 -5 1 -10 -5 -10 -6 0 -9 -4 -6 -8 3
-5 -4 -19 -15 -31 -11 -12 -21 -30 -22 -41 -1 -10 -5 -16 -9 -14 -4 3 -8 0 -8
-7 0 -6 -8 -18 -17 -26 -11 -9 -12 -11 -3 -7 10 5 9 0 -4 -14 -11 -12 -15 -22
-10 -22 5 0 2 -6 -7 -13 -9 -7 -19 -23 -23 -35 -5 -16 -13 -21 -23 -17 -13 4
-14 3 -4 -9 10 -12 9 -20 -4 -39 -9 -14 -23 -28 -30 -31 -8 -3 -12 -12 -9 -21
3 -8 1 -15 -5 -15 -6 0 -10 -3 -10 -7 3 -21 -2 -33 -13 -27 -7 5 -8 3 -3 -6 4
-7 3 -15 -2 -19 -5 -3 -17 -23 -27 -44 -10 -21 -28 -48 -42 -59 -17 -16 -21
-25 -13 -34 7 -8 7 -14 -1 -19 -6 -3 -8 -11 -5 -16 4 -5 1 -9 -5 -9 -6 0 -9
-4 -5 -9 3 -5 1 -12 -5 -16 -6 -4 -8 -11 -5 -16 4 -5 2 -9 -3 -9 -5 0 -8 -10
-7 -22 1 -13 -2 -26 -8 -29 -5 -4 -10 -25 -11 -47 0 -22 -5 -38 -10 -35 -5 3
-7 -6 -4 -21 3 -14 1 -26 -4 -26 -5 0 -7 -4 -3 -9 3 -5 1 -13 -5 -16 -6 -4 -8
-16 -4 -27 4 -15 3 -18 -6 -13 -9 6 -9 3 -1 -14 8 -15 9 -21 1 -21 -6 0 -8 -4
-5 -10 3 -5 1 -19 -5 -30 -8 -15 -8 -20 2 -20 10 0 10 -2 -1 -9 -8 -5 -10 -14
-6 -21 5 -8 4 -11 -2 -7 -6 4 -14 0 -17 -9 -9 -24 -7 -31 4 -14 6 9 10 10 10
3 0 -6 -5 -15 -11 -18 -6 -4 -8 -14 -5 -22 3 -8 1 -11 -4 -8 -6 4 -8 -6 -6
-24 2 -19 -1 -28 -7 -24 -6 4 -8 -4 -5 -21 4 -19 1 -26 -11 -26 -9 0 -12 -3
-6 -8 6 -4 11 -13 13 -21 3 -12 1 -12 -14 0 -16 13 -16 12 -5 -8 6 -13 8 -23
3 -23 -7 0 -9 -8 -13 -65 -1 -15 -6 -22 -13 -18 -6 4 -5 0 2 -9 7 -9 9 -19 4
-22 -5 -3 -8 -19 -6 -36 3 -23 0 -29 -9 -24 -9 6 -8 3 1 -8 10 -13 10 -18 1
-24 -9 -5 -7 -11 6 -21 11 -7 13 -13 6 -13 -7 0 -10 -4 -6 -9 3 -5 1 -13 -5
-16 -8 -5 -8 -11 0 -20 7 -8 7 -15 1 -19 -5 -3 -7 -15 -4 -26 3 -11 9 -18 13
-15 5 3 6 -4 3 -15 -3 -11 -10 -17 -17 -13 -8 5 -8 3 0 -8 15 -19 23 -69 11
-69 -6 0 -6 -5 0 -12 5 -7 9 -20 8 -28 0 -8 4 -18 10 -22 7 -5 6 -14 -2 -27
-11 -17 -10 -19 4 -14 11 4 14 3 9 -6 -4 -6 -2 -19 6 -28 9 -12 9 -15 1 -9
-18 10 -16 -10 3 -28 10 -10 11 -16 3 -16 -8 0 -8 -4 2 -16 10 -12 10 -17 0
-23 -10 -7 -10 -9 2 -14 8 -3 14 -19 15 -37 0 -17 7 -39 14 -48 9 -11 9 -13 1
-9 -9 5 -8 -3 3 -28 8 -20 12 -40 9 -45 -4 -6 -1 -10 6 -10 7 0 9 -3 6 -7 -4
-3 1 -12 11 -20 16 -14 16 -14 -1 -9 -15 5 -16 3 -7 -15 6 -11 15 -17 20 -14
4 3 6 -5 2 -17 -3 -11 -1 -19 4 -16 5 4 10 -5 10 -18 1 -15 -2 -22 -10 -18 -6
3 0 -4 14 -16 14 -12 19 -19 13 -15 -14 7 -18 -7 -6 -19 14 -13 31 -76 19 -69
-6 4 -5 -1 2 -10 8 -9 11 -20 8 -26 -3 -5 0 -11 8 -14 8 -3 12 -16 11 -31 -2
-14 1 -26 6 -26 5 0 9 -5 9 -11 0 -5 -4 -7 -10 -4 -6 3 -7 -1 -4 -9 3 -9 10
-16 16 -16 5 0 6 -4 3 -10 -3 -5 0 -10 7 -10 9 0 9 -3 -2 -10 -13 -9 -13 -10
0 -10 13 0 13 -1 0 -10 -13 -8 -13 -10 1 -10 9 0 16 -7 17 -15 1 -8 3 -22 4
-30 1 -8 4 -15 8 -15 6 0 8 -7 12 -49 1 -11 6 -17 10 -15 4 3 8 -4 8 -15 0
-11 4 -22 9 -25 5 -4 8 -18 6 -32 -1 -15 3 -28 12 -31 11 -4 11 -8 1 -21 -10
-12 -10 -14 0 -8 8 5 12 -1 12 -19 0 -16 4 -24 11 -19 8 5 8 1 0 -14 -8 -15
-7 -21 3 -25 8 -3 12 -17 10 -33 -1 -16 1 -31 6 -34 4 -3 10 -16 11 -30 2 -14
9 -28 14 -32 6 -5 5 -8 -3 -8 -8 0 -10 -5 -5 -12 7 -12 13 -51 14 -91 0 -11 5
-15 12 -10 7 4 6 0 -2 -10 -10 -13 -10 -17 -1 -17 10 0 10 -3 0 -15 -10 -12
-10 -15 1 -15 12 0 12 -2 0 -9 -9 -6 -10 -10 -2 -16 9 -5 9 -10 0 -21 -9 -11
-8 -14 2 -14 12 0 12 -2 0 -9 -7 -5 -9 -11 -4 -14 11 -7 11 -37 -1 -55 -4 -7
-2 -12 5 -12 8 0 8 -4 -1 -15 -10 -12 -10 -15 1 -15 12 0 12 -2 0 -9 -7 -5 -9
-11 -4 -14 11 -7 11 -37 -1 -55 -4 -7 -2 -12 5 -12 8 0 8 -4 -1 -15 -10 -12
-10 -15 1 -15 12 0 12 -2 0 -9 -9 -6 -10 -11 -2 -15 8 -5 8 -13 1 -27 -8 -14
-7 -19 2 -19 10 0 10 -2 -1 -9 -10 -6 -10 -10 -1 -16 9 -6 9 -10 -1 -16 -11
-7 -11 -9 -1 -9 9 0 10 -5 3 -18 -6 -11 -6 -24 -1 -32 5 -9 5 -19 -2 -27 -8
-10 -7 -13 3 -13 10 -1 9 -5 -4 -14 -17 -13 -17 -14 0 -20 14 -6 15 -9 4 -15
-7 -5 -10 -14 -7 -20 4 -6 3 -11 -2 -11 -5 0 -8 -14 -6 -31 2 -18 0 -28 -6
-24 -12 8 -12 8 0 -33 8 -30 7 -32 -6 -21 -12 10 -15 10 -12 -2 2 -8 8 -17 13
-21 6 -5 5 -8 -3 -8 -7 0 -10 -5 -7 -10 3 -5 1 -10 -6 -10 -8 0 -8 -4 1 -15 9
-11 9 -15 1 -15 -7 0 -9 -4 -6 -10 3 -5 1 -10 -5 -10 -7 0 -10 -7 -6 -15 3 -8
1 -15 -4 -15 -5 0 -6 -8 -3 -17 5 -13 3 -15 -12 -9 -18 7 -18 6 -2 -12 16 -17
16 -21 2 -32 -8 -7 -15 -25 -15 -41 0 -16 -4 -29 -10 -29 -5 0 -10 -9 -10 -19
0 -11 -6 -22 -12 -24 -10 -4 -10 -6 0 -6 6 -1 12 -6 12 -12 0 -5 -4 -7 -10 -4
-5 3 -10 -3 -10 -14 0 -12 -6 -21 -12 -21 -9 0 -8 -3 2 -10 12 -7 10 -11 -10
-19 -14 -5 -19 -10 -12 -10 10 -1 10 -5 0 -23 -7 -13 -11 -26 -10 -30 1 -5 -3
-8 -10 -8 -6 0 -8 -3 -5 -7 4 -3 -1 -12 -11 -20 -11 -10 -12 -12 -2 -8 10 4 9
2 -2 -8 -10 -8 -18 -19 -18 -26 0 -6 -8 -11 -17 -11 -15 0 -16 -2 -3 -10 13
-9 7 -14 -12 -11 -4 0 -5 -6 -2 -14 4 -8 -1 -17 -9 -21 -9 -3 -13 -12 -10 -20
3 -8 0 -14 -7 -14 -6 0 -9 -4 -6 -9 4 -5 1 -11 -5 -13 -6 -2 -14 -19 -18 -38
-4 -19 -13 -34 -19 -33 -6 2 -9 -4 -6 -12 4 -8 11 -12 18 -9 6 3 2 -2 -8 -10
-15 -12 -16 -16 -5 -16 12 0 12 -2 -1 -10 -8 -5 -10 -10 -5 -10 6 0 9 -22 8
-50 0 -27 3 -50 9 -50 5 0 6 -4 3 -10 -3 -5 -2 -10 4 -10 6 0 7 -7 4 -17 -5
-12 -3 -14 7 -8 10 6 12 3 8 -13 -4 -16 -2 -19 10 -15 11 5 14 2 9 -10 -3 -9
-3 -16 1 -14 4 1 8 -2 9 -8 1 -5 9 -12 18 -15 9 -3 17 -10 18 -15 2 -15 21
-33 30 -28 4 2 10 -3 13 -11 3 -9 10 -13 15 -10 5 3 9 2 8 -3 -3 -20 2 -33 14
-31 6 2 11 -3 9 -10 -1 -8 2 -11 7 -8 5 4 26 -10 46 -29 21 -19 41 -32 46 -29
5 3 9 -2 9 -11 0 -9 5 -13 10 -10 6 3 10 1 10 -5 0 -6 4 -9 8 -6 5 3 15 -4 22
-15 8 -10 20 -19 28 -19 7 0 10 -5 7 -10 -4 -6 -3 -10 2 -9 21 4 44 -2 39 -10
-7 -11 22 -23 36 -14 6 3 8 1 5 -4 -4 -6 7 -16 23 -23 17 -7 30 -16 30 -21 0
-5 3 -8 8 -8 17 3 33 -2 29 -8 -3 -5 7 -9 21 -10 15 0 28 -6 30 -12 2 -5 10
-7 18 -4 8 3 14 0 14 -7 0 -6 4 -9 9 -5 5 3 15 -1 23 -8 7 -7 20 -12 28 -12 8
0 21 -5 28 -12 8 -7 18 -11 23 -8 5 4 9 0 9 -7 0 -9 3 -9 10 2 8 13 10 13 10
-2 0 -10 7 -15 17 -14 10 2 23 -3 31 -10 7 -7 20 -10 29 -7 10 4 14 2 9 -5 -4
-6 1 -11 11 -11 43 -1 59 -5 71 -18 11 -10 17 -11 28 -2 12 10 18 6 16 -12 -1
-3 5 -6 13 -6 8 0 12 4 9 9 -6 10 10 11 20 1 4 -4 19 -9 33 -11 15 -2 35 -8
46 -14 14 -7 17 -7 13 1 -4 6 -3 11 3 11 5 0 13 -5 16 -10 4 -7 13 -7 24 0 12
6 22 5 28 -1 7 -7 13 -7 17 -1 10 17 92 -38 97 -65 6 -30 23 -63 32 -63 7 0 5
-5 -3 -10 -11 -7 -11 -10 -2 -10 7 0 11 -4 7 -9 -3 -5 0 -13 6 -16 5 -4 8 -13
5 -21 -3 -8 -1 -14 3 -14 5 0 7 -10 3 -22 -3 -12 -1 -19 5 -15 11 7 11 -22 -1
-41 -4 -6 -4 -16 -1 -22 3 -5 2 -10 -4 -10 -6 0 -7 -7 -4 -17 4 -10 2 -14 -4
-10 -7 5 -9 0 -6 -13 3 -12 0 -20 -6 -20 -7 0 -10 -4 -7 -9 8 -12 -14 -72 -24
-66 -4 2 -5 -7 -2 -20 2 -15 0 -25 -7 -25 -7 0 -10 -4 -6 -9 3 -5 1 -12 -4
-15 -4 -3 -11 -19 -15 -36 -3 -17 -10 -29 -16 -25 -6 4 -7 -1 -3 -11 5 -14 3
-16 -11 -11 -10 4 -15 3 -11 -3 3 -6 1 -10 -5 -10 -7 0 -10 -7 -7 -14 4 -10 1
-13 -9 -9 -9 3 -14 0 -12 -8 2 -8 -4 -13 -14 -13 -10 1 -15 -2 -12 -7 3 -5 0
-9 -6 -9 -6 0 -9 -3 -7 -7 5 -10 -30 -43 -37 -36 -3 4 -6 -1 -6 -11 0 -9 -4
-14 -10 -11 -5 3 -10 1 -10 -5 0 -6 -4 -8 -10 -5 -5 3 -10 2 -10 -2 0 -5 -7
-18 -16 -29 -8 -10 -13 -12 -9 -4 4 8 -3 4 -14 -10 -11 -14 -21 -29 -21 -34 0
-5 -7 -3 -16 4 -8 8 -14 9 -13 4 4 -21 -2 -34 -13 -32 -7 2 -12 -3 -10 -11 2
-9 -4 -12 -17 -8 -15 3 -18 1 -14 -11 5 -11 2 -14 -11 -9 -11 5 -15 3 -10 -5
5 -7 2 -9 -8 -5 -10 3 -15 0 -14 -10 0 -8 -8 -20 -18 -27 -30 -17 -57 -39 -84
-66 -13 -14 -29 -24 -34 -22 -5 1 -12 -7 -15 -18 -3 -11 -9 -17 -14 -14 -5 3
-9 0 -9 -6 0 -6 -4 -8 -10 -5 -6 4 -7 -1 -3 -11 4 -12 3 -15 -5 -10 -7 4 -12
1 -12 -9 0 -9 -4 -13 -10 -10 -5 3 -10 1 -10 -5 0 -6 -4 -8 -10 -5 -9 6 -14
-8 -11 -27 1 -8 -13 -11 -25 -5 -3 1 -14 -14 -25 -33 -10 -19 -18 -31 -19 -27
0 5 -16 -7 -35 -27 -19 -20 -43 -36 -52 -36 -14 0 -15 -2 -4 -9 9 -6 10 -11 2
-15 -6 -4 -16 -4 -21 -1 -6 4 -10 3 -9 -2 3 -20 -2 -34 -11 -28 -5 3 -10 -1
-10 -9 0 -9 -3 -15 -7 -14 -16 3 -43 -15 -43 -28 0 -8 -5 -13 -10 -12 -6 2
-16 -8 -23 -22 -7 -14 -21 -24 -30 -24 -9 1 -16 -1 -15 -5 2 -19 -3 -31 -12
-26 -5 3 -10 -1 -10 -9 0 -10 -6 -13 -17 -9 -10 3 -15 3 -11 -1 8 -9 -47 -66
-63 -66 -6 0 -7 -4 -4 -10 3 -5 1 -10 -5 -10 -6 0 -8 -4 -5 -10 3 -5 -2 -10
-11 -10 -10 0 -15 -3 -11 -6 9 -10 -30 -47 -42 -39 -7 4 -10 1 -9 -7 2 -7 -3
-12 -10 -10 -8 1 -11 -2 -8 -6 3 -5 -6 -18 -19 -28 -14 -10 -25 -25 -25 -32 0
-7 -4 -11 -9 -8 -4 3 -17 -2 -27 -10 -10 -9 -13 -13 -6 -9 6 3 12 1 12 -4 0
-6 -7 -11 -15 -11 -9 0 -18 -7 -21 -15 -4 -8 -11 -12 -16 -9 -6 4 -9 1 -6 -7
2 -7 -12 -29 -31 -49 -20 -19 -35 -38 -33 -42 1 -5 -5 -8 -13 -8 -8 0 -12 -6
-10 -13 3 -6 -6 -21 -20 -31 -14 -10 -25 -25 -25 -32 0 -8 -6 -13 -12 -12 -8
2 -12 -5 -10 -16 2 -11 -1 -15 -8 -11 -7 4 -14 -2 -17 -14 -3 -11 -8 -19 -12
-16 -4 2 -18 -13 -32 -34 -13 -22 -28 -36 -33 -33 -5 3 -6 0 -3 -5 4 -6 0 -16
-8 -23 -8 -7 -12 -17 -8 -23 4 -6 0 -8 -10 -4 -9 3 -16 3 -16 -1 3 -20 -2 -33
-11 -27 -5 3 -7 0 -4 -8 3 -8 -2 -17 -10 -20 -9 -4 -16 -13 -16 -20 0 -8 -10
-22 -22 -31 -13 -9 -16 -14 -8 -9 8 4 4 -7 -10 -24 -14 -17 -28 -29 -32 -26
-4 2 -5 -3 -2 -11 3 -9 1 -16 -6 -16 -6 0 -9 -4 -6 -8 3 -5 -8 -24 -23 -43
-16 -19 -30 -38 -32 -44 -2 -5 -8 -9 -12 -7 -5 1 -6 -2 -3 -7 8 -13 -4 -42
-15 -35 -5 3 -6 -2 -3 -10 3 -9 1 -16 -6 -16 -6 0 -8 -5 -5 -10 4 -6 2 -17 -4
-24 -7 -8 -11 -18 -10 -22 5 -29 -2 -54 -13 -48 -10 6 -10 4 0 -8 9 -12 10
-18 2 -23 -6 -4 -9 -13 -6 -20 2 -7 0 -17 -6 -23 -8 -8 -7 -13 6 -18 13 -5 14
-9 4 -21 -9 -11 -9 -17 3 -25 11 -7 11 -11 1 -15 -6 -2 -9 -10 -5 -16 11 -18
12 -38 2 -31 -13 8 -11 -10 3 -24 9 -9 9 -12 0 -12 -7 0 -12 -5 -12 -11 0 -5
4 -7 10 -4 5 3 10 1 10 -4 0 -6 -6 -11 -12 -11 -9 0 -10 -3 -2 -8 13 -8 15
-42 2 -42 -4 0 -8 -5 -8 -11 0 -5 5 -7 10 -4 5 3 10 -1 10 -10 0 -10 -5 -13
-12 -9 -10 6 -10 5 -1 -7 13 -16 12 -36 -1 -58 -6 -9 -5 -12 1 -8 14 9 23 -16
13 -33 -5 -7 -4 -25 1 -38 9 -23 8 -24 -8 -11 -11 9 -14 10 -9 2 13 -23 15
-53 3 -53 -8 0 -8 -3 -2 -8 6 -4 11 -15 11 -25 2 -15 -1 -16 -14 -5 -13 11
-14 11 -8 0 12 -21 15 -62 3 -55 -6 4 -8 0 -4 -9 3 -9 0 -21 -6 -28 -9 -10 -9
-11 3 -6 8 4 4 -3 -10 -15 -15 -13 -18 -20 -8 -16 24 8 30 -4 10 -20 -16 -14
-16 -14 3 -9 18 5 18 5 4 -6 -9 -7 -14 -19 -11 -27 2 -7 -2 -17 -9 -22 -12 -7
-12 -9 0 -9 10 0 8 -7 -7 -23 -17 -17 -19 -26 -10 -35 8 -8 8 -15 -3 -28 -12
-16 -12 -17 1 -9 11 6 10 3 -2 -11 -14 -16 -15 -23 -6 -32 9 -9 9 -12 0 -12
-7 0 -11 -6 -10 -12 2 -7 -2 -12 -8 -11 -6 1 -11 -4 -11 -12 0 -8 3 -12 7 -10
4 2 7 -2 7 -10 0 -8 -3 -14 -6 -13 -19 2 -24 -4 -11 -12 11 -7 11 -10 2 -10
-7 0 -10 -5 -7 -10 4 -6 3 -9 -2 -8 -4 2 -9 -1 -10 -5 -1 -5 -10 -15 -20 -24
-10 -8 -12 -12 -5 -8 6 3 12 1 12 -4 0 -6 -6 -11 -14 -11 -8 0 -13 -8 -12 -18
0 -9 -5 -16 -12 -14 -8 1 -11 -2 -7 -8 4 -6 -1 -18 -11 -26 -18 -13 -18 -14 1
-8 18 6 18 5 -2 -15 -13 -12 -23 -29 -23 -37 0 -8 -5 -12 -10 -9 -6 3 -10 1
-10 -4 0 -6 6 -11 13 -11 9 0 9 -2 -1 -9 -8 -4 -13 -11 -13 -15 3 -20 0 -26
-11 -20 -8 5 -7 0 2 -11 9 -11 10 -16 3 -11 -13 7 -17 -7 -13 -52 1 -12 -7
-30 -17 -40 -10 -9 -14 -14 -9 -9 17 12 29 8 17 -6 -6 -8 -7 -18 -3 -22 4 -5
1 -4 -7 0 -11 6 -13 4 -8 -8 3 -10 2 -17 -3 -17 -5 0 -6 -7 -3 -17 5 -11 3
-14 -6 -8 -10 5 -11 2 -6 -14 4 -13 2 -21 -5 -21 -6 0 -8 -4 -5 -10 3 -5 1
-10 -5 -10 -6 0 -8 -5 -5 -10 3 -6 1 -10 -4 -10 -6 0 -11 -5 -11 -11 0 -5 4
-8 9 -5 5 4 4 -5 -2 -18 -7 -13 -16 -22 -20 -19 -5 3 -4 -4 2 -15 14 -25 14
-43 1 -22 -8 12 -10 11 -10 -7 0 -13 -4 -23 -10 -23 -5 0 -10 -5 -10 -11 0 -5
5 -7 11 -4 6 4 5 -2 -2 -13 -7 -12 -16 -19 -19 -17 -4 2 -6 -6 -5 -18 1 -12
-2 -28 -8 -34 -5 -7 -6 -13 -1 -13 5 0 3 -4 -4 -9 -7 -4 -14 -18 -15 -29 -1
-12 -4 -22 -7 -22 -3 0 -6 -10 -7 -22 -1 -11 -7 -24 -14 -28 -6 -4 -8 -13 -5
-19 4 -6 0 -14 -8 -17 -9 -3 -16 -10 -16 -16 0 -5 4 -7 9 -3 5 3 -4 -20 -20
-51 -17 -31 -25 -52 -18 -48 7 4 3 -6 -9 -23 -12 -17 -22 -35 -22 -40 0 -4 5
-1 10 7 5 8 10 11 10 5 -1 -15 -26 -45 -33 -40 -4 3 -5 2 -2 -2 3 -3 -1 -13
-8 -21 -9 -13 -9 -14 1 -8 18 11 15 -5 -5 -21 -12 -9 -13 -12 -3 -8 8 4 4 -3
-10 -15 -21 -19 -22 -21 -5 -16 19 6 19 5 3 -8 -10 -7 -18 -19 -18 -25 0 -7
-5 -9 -12 -5 -10 6 -10 4 0 -8 10 -12 10 -17 1 -20 -7 -2 -14 -15 -16 -28 -2
-14 -10 -28 -19 -33 -13 -7 -13 -11 -2 -25 11 -13 11 -15 -4 -9 -13 4 -16 1
-13 -14 2 -10 -1 -19 -6 -19 -6 0 -9 -11 -7 -24 1 -13 -4 -31 -12 -42 -13 -16
-13 -17 0 -9 13 8 13 6 2 -8 -8 -9 -11 -21 -7 -27 3 -5 -1 -13 -9 -16 -9 -3
-16 -10 -16 -16 0 -5 5 -6 10 -3 18 11 11 -4 -12 -26 -21 -20 -21 -21 -3 -15
18 6 19 5 3 -7 -10 -8 -15 -17 -11 -20 3 -4 2 -7 -4 -7 -6 0 -10 -8 -9 -17 0
-10 -5 -17 -12 -15 -8 1 -11 -2 -7 -8 4 -6 1 -18 -7 -27 -11 -14 -11 -16 2 -9
9 5 8 2 -2 -7 -14 -11 -15 -16 -5 -26 9 -10 8 -11 -7 -5 -16 6 -18 4 -14 -14
4 -15 2 -22 -7 -22 -8 0 -17 -5 -21 -12 -4 -7 -3 -8 4 -4 7 4 12 2 12 -3 0 -6
-5 -11 -11 -11 -5 0 -8 -4 -4 -9 3 -5 0 -13 -6 -16 -5 -4 -8 -13 -5 -21 3 -9
0 -11 -11 -7 -10 4 -14 2 -10 -4 4 -6 0 -19 -9 -27 -8 -9 -11 -16 -5 -16 6 0
8 -7 5 -15 -4 -8 -12 -15 -19 -15 -8 0 -17 -4 -20 -10 -3 -6 1 -7 10 -4 11 5
14 2 9 -10 -3 -9 -11 -16 -16 -16 -6 0 -5 -7 2 -15 11 -13 10 -14 -4 -9 -12 5
-16 0 -16 -21 0 -15 -4 -24 -10 -20 -5 3 -10 2 -10 -4 0 -5 6 -12 13 -14 7 -3
4 -6 -6 -6 -10 -1 -15 -5 -12 -11 3 -5 1 -10 -6 -10 -7 0 -9 -3 -6 -7 4 -3 -1
-12 -11 -20 -9 -8 -11 -12 -5 -8 9 4 11 1 7 -9 -3 -9 -9 -14 -13 -12 -3 2 -12
-2 -19 -10 -7 -8 -10 -14 -7 -14 3 0 -4 -9 -15 -20 -12 -12 -18 -26 -14 -32 5
-8 1 -9 -12 -4 -10 4 -16 4 -12 1 9 -9 -12 -65 -24 -65 -5 0 -6 -5 -3 -10 3
-6 -1 -13 -10 -16 -10 -4 -14 -13 -10 -28 5 -15 4 -17 -3 -7 -7 9 -12 10 -16
2 -4 -6 -4 -11 1 -11 4 0 2 -4 -5 -9 -7 -4 -14 -17 -15 -29 0 -12 -3 -19 -5
-17 -9 8 -29 -21 -24 -34 3 -9 1 -12 -6 -7 -7 4 -12 2 -12 -3 0 -20 -3 -26
-19 -39 -13 -11 -13 -12 -1 -7 8 4 7 0 -4 -9 -11 -9 -16 -22 -12 -31 3 -9 2
-13 -4 -10 -6 3 -11 0 -12 -7 0 -7 -2 -18 -2 -24 -1 -6 -9 -22 -19 -37 -9 -14
-17 -30 -17 -34 0 -4 5 -1 10 7 6 9 10 10 10 3 0 -7 -7 -16 -17 -21 -11 -6
-17 -23 -17 -50 -1 -22 -4 -38 -8 -35 -5 2 -8 -3 -8 -12 0 -10 5 -14 13 -10 6
4 3 -1 -7 -9 -13 -10 -15 -16 -7 -16 11 0 11 -3 0 -17 -12 -15 -12 -16 1 -8
13 8 13 7 1 -8 -11 -14 -11 -20 0 -34 12 -14 12 -16 0 -8 -11 6 -13 2 -9 -19
3 -14 1 -29 -5 -33 -6 -4 -7 -1 -2 8 7 12 6 12 -6 0 -11 -11 -11 -14 -1 -18
10 -4 10 -8 0 -21 -11 -13 -11 -14 2 -7 13 7 13 6 2 -7 -10 -13 -10 -17 0 -21
8 -3 6 -6 -5 -6 -15 -1 -16 -4 -6 -22 8 -15 8 -19 0 -15 -12 8 -11 -21 2 -41
5 -8 3 -11 -5 -8 -9 4 -14 -2 -14 -15 0 -11 5 -19 11 -16 7 2 12 -2 12 -10 0
-7 -4 -11 -8 -8 -4 2 -10 0 -14 -6 -3 -5 -1 -10 6 -10 8 0 7 -5 -2 -17 -12
-14 -12 -15 -1 -9 11 7 12 4 3 -12 -14 -27 -14 -35 2 -26 9 6 9 5 0 -7 -18
-22 -20 -98 -3 -109 13 -8 13 -10 0 -10 -17 0 -22 -40 -5 -40 5 0 3 -5 -5 -10
-8 -5 -10 -10 -5 -10 6 0 11 -9 11 -20 0 -14 -5 -19 -15 -15 -12 5 -12 3 0
-11 7 -9 12 -32 10 -50 l-3 -34 2072 0 c1369 0 2069 4 2065 11 -8 12 18 7 27
-6 5 -6 8 -5 8 3 0 9 12 12 40 9 22 -2 43 0 46 4 3 5 14 4 26 -2 16 -8 19 -8
13 1 -6 9 0 11 24 8 17 -2 31 0 31 5 0 5 6 4 14 -2 10 -8 16 -9 21 -1 3 6 11
8 16 4 5 -3 16 -1 24 6 9 7 15 8 20 0 4 -7 12 -7 26 0 10 6 19 7 19 3 0 -4 5
-1 10 7 8 12 10 12 11 -5 0 -11 3 -14 6 -7 2 6 16 12 29 12 17 0 23 4 18 12
-5 7 -3 8 7 2 22 -13 170 -14 162 0 -3 6 4 2 17 -9 13 -11 20 -14 16 -7 -4 6
-2 12 3 12 6 0 11 -4 11 -8 0 -4 17 -7 38 -6 20 1 43 -3 50 -9 8 -6 12 -6 12
2 0 7 5 9 13 4 16 -10 38 -10 59 -1 9 5 19 4 22 0 6 -10 36 -9 54 2 8 5 12 1
12 -11 0 -10 3 -14 8 -8 4 6 14 10 22 10 8 -1 21 3 28 8 7 6 12 6 12 0 0 -12
53 -11 62 2 5 6 8 5 8 -3 0 -8 5 -10 13 -5 12 8 29 10 135 14 34 2 62 8 62 14
0 6 3 7 8 0 8 -12 46 -20 39 -8 -3 4 6 8 19 8 13 0 24 -4 24 -9 0 -4 8 -5 18
-1 25 10 92 11 92 2 0 -4 8 -4 17 2 10 5 26 5 40 0 13 -5 25 -4 28 1 3 6 16 5
31 0 31 -12 37 -12 30 -2 -3 5 1 9 9 9 8 0 15 -4 15 -9 0 -11 23 -6 32 7 5 6
8 5 8 -4 0 -8 6 -11 18 -6 32 13 82 14 75 2 -4 -8 -1 -7 9 1 16 13 44 12 67
-2 10 -7 12 -5 6 3 -9 16 52 13 74 -3 11 -8 13 -8 7 1 -5 10 3 12 33 11 23 -1
41 -6 41 -12 0 -6 4 -5 9 2 9 15 42 13 53 -3 5 -6 8 -6 8 2 0 12 45 12 57 0 9
-10 25 -9 19 1 -7 12 37 9 46 -2 4 -6 13 -4 22 3 9 8 16 9 16 4 0 -5 70 -10
166 -11 119 -1 171 -5 182 -14 10 -8 13 -9 9 -1 -5 8 2 10 25 8 18 -2 35 -4
38 -5 14 -6 36 -4 48 4 7 5 12 4 12 -3 0 -7 4 -9 10 -6 5 3 10 0 10 -7 0 -10
2 -10 9 1 7 11 9 11 14 0 4 -11 6 -11 6 -1 1 8 7 10 19 5 9 -5 43 -9 74 -8 32
0 58 -2 58 -5 0 -3 17 -7 38 -10 69 -8 1897 -5 1947 3 28 5 65 10 83 10 17 1
32 6 32 11 0 6 5 5 12 -2 9 -9 16 -8 29 4 10 9 19 11 23 5 4 -6 16 -7 34 -1
44 15 106 18 121 6 11 -8 13 -8 8 0 -4 7 0 14 8 18 8 3 15 1 15 -5 0 -6 6 -6
18 0 11 6 24 6 32 1 9 -5 19 -5 27 2 9 7 13 7 13 -2 0 -9 3 -10 13 -1 10 8 17
7 26 -2 7 -6 12 -7 11 -2 -5 22 1 29 10 15 7 -11 10 -11 10 -2 0 10 5 10 20 2
17 -9 20 -8 20 7 0 11 3 14 8 7 8 -13 42 -15 42 -2 0 11 23 6 32 -7 5 -6 8 -5
8 4 0 10 3 11 14 2 10 -9 16 -9 21 -1 5 8 11 7 23 -2 12 -10 14 -10 8 0 -9 15
6 16 22 0 7 -7 12 -8 12 -2 0 5 9 10 20 11 11 1 18 -1 16 -5 -3 -4 4 -8 14 -8
10 0 17 4 14 8 -2 4 5 6 16 5 11 -1 20 -6 20 -12 0 -5 4 -4 9 4 7 11 13 12 23
3 8 -7 19 -7 28 -2 9 6 17 5 22 -3 6 -9 8 -8 8 2 0 11 3 11 17 0 14 -12 16
-12 8 0 -6 11 -3 13 13 9 12 -4 22 -3 22 1 0 3 29 6 65 5 40 0 62 3 58 9 -4 6
-1 7 8 1 8 -5 43 -9 79 -9 36 0 71 -5 79 -9 10 -7 12 -5 6 4 -6 10 -2 11 19 6
18 -4 26 -2 26 6 0 9 2 10 8 2 4 -7 27 -10 55 -9 33 2 45 0 41 -8 -5 -9 -4 -9
6 0 8 8 20 9 36 3 13 -5 24 -6 24 -1 0 9 69 -1 90 -14 9 -6 11 -4 5 5 -6 10
-4 11 6 4 8 -5 25 -9 39 -9 14 0 31 -4 38 -8 7 -5 12 -4 12 3 0 6 5 8 11 5 6
-4 27 -7 47 -7 20 0 43 -5 51 -11 12 -9 13 -9 7 1 -4 6 -2 12 3 12 6 0 11 -4
11 -8 0 -5 7 -9 15 -9 8 0 12 4 9 9 -3 4 0 8 5 8 6 0 11 -5 11 -10 0 -7 8 -7
23 1 12 6 19 8 15 5 -9 -10 30 -48 42 -41 6 4 10 1 10 -5 0 -7 7 -10 15 -6 8
3 15 2 15 -3 0 -4 16 -8 35 -8 19 0 35 5 35 11 0 6 4 5 9 -3 8 -13 12 -13 27
0 11 9 15 9 10 2 -4 -7 -2 -13 3 -13 6 0 11 6 11 13 0 9 3 8 9 -2 7 -11 11
-10 20 5 6 11 11 14 11 7 0 -12 24 -12 36 0 4 4 14 1 22 -6 10 -8 13 -8 9 -1
-8 14 9 22 41 19 12 -1 22 1 22 5 0 8 32 6 46 -3 6 -3 14 -3 18 1 12 11 90 9
98 -3 5 -6 8 -6 8 3 0 16 37 16 43 0 4 -10 6 -10 6 -1 1 7 8 10 18 6 9 -4 14
-2 11 3 -4 5 13 7 39 5 35 -2 44 0 38 10 -6 9 -4 11 8 6 10 -4 16 -2 14 6 -1
7 4 11 11 10 6 -2 12 2 12 8 0 6 7 9 15 6 8 -4 17 -2 20 2 7 12 165 11 165 -1
0 -5 6 -6 13 -1 18 11 37 12 37 2 0 -5 16 -8 35 -6 20 3 38 1 41 -4 2 -4 12
-5 21 -2 11 4 14 3 9 -6 -9 -14 16 -11 26 4 5 6 8 6 8 -1 0 -6 17 -11 37 -12
20 -1 40 -7 44 -13 4 -8 9 -8 13 -1 4 6 15 9 26 7 11 -2 20 1 20 6 0 6 5 7 10
4 6 -3 10 -2 10 4 0 6 7 8 15 5 9 -4 15 0 16 7 0 8 4 5 9 -6 6 -15 9 -16 9 -4
1 11 10 15 31 14 16 -1 27 2 24 6 -2 4 4 8 13 9 46 1 63 5 63 13 0 5 6 7 13 4
6 -2 18 3 25 12 9 11 15 12 18 5 5 -12 44 -7 44 6 0 4 11 6 24 5 13 -2 29 1
37 6 12 7 11 9 -1 9 -9 0 -16 10 -18 26 -1 14 -9 32 -18 41 -13 13 -13 17 -2
24 11 7 11 9 0 9 -7 0 -10 5 -7 10 3 6 1 10 -4 10 -6 0 -11 9 -11 20 0 11 -5
20 -11 20 -6 0 -8 7 -5 16 3 8 2 13 -3 10 -5 -3 -12 1 -15 10 -3 8 -2 12 4 9
6 -3 10 -1 10 4 0 6 -5 11 -11 11 -5 0 -8 4 -4 9 3 6 -3 14 -12 20 -14 8 -15
10 -3 11 13 0 13 1 0 10 -10 6 -11 10 -2 10 6 0 12 5 12 12 0 6 -3 8 -7 5 -3
-4 -12 -2 -20 4 -10 9 -10 15 -2 25 8 10 8 14 0 14 -6 0 -11 9 -11 21 0 13 -4
18 -12 13 -10 -6 -10 -4 0 8 9 11 10 18 2 23 -5 3 -10 17 -10 31 0 13 -5 24
-11 24 -6 0 -9 6 -6 13 2 6 0 23 -6 37 -14 36 -15 60 -3 60 7 0 7 3 1 8 -5 4
-12 18 -14 32 -1 14 -8 28 -15 32 -7 5 -6 8 4 8 12 0 13 2 1 9 -11 7 -11 9 0
14 10 4 10 6 2 6 -7 1 -13 8 -13 17 0 9 -5 12 -12 8 -9 -5 -9 -2 1 9 11 14 11
17 0 17 -12 0 -12 2 0 9 10 6 10 10 1 13 -7 2 -13 20 -14 40 0 20 -5 34 -10
31 -5 -3 -7 8 -4 26 3 18 0 35 -5 38 -6 3 -7 1 -3 -5 3 -6 2 -13 -3 -16 -5 -3
-7 8 -6 24 1 17 -1 33 -6 36 -5 3 -7 10 -4 15 4 5 2 9 -4 9 -6 0 -8 7 -5 15 4
9 0 15 -7 15 -11 0 -11 3 1 10 11 7 11 10 2 10 -8 0 -10 5 -6 13 5 7 0 6 -11
-3 -10 -8 -16 -10 -12 -3 4 6 3 15 -3 18 -8 5 -7 12 2 23 10 12 10 14 1 8 -8
-4 -13 -2 -13 6 0 7 -9 19 -21 26 -17 11 -19 16 -7 29 7 9 9 14 3 11 -17 -10
-37 23 -39 64 0 9 -3 15 -6 13 -3 -1 -11 3 -18 11 -10 11 -10 14 0 15 7 0 4 4
-7 9 -11 5 -14 9 -7 9 10 1 10 4 0 15 -7 8 -17 11 -23 8 -5 -3 -4 2 4 11 11
14 11 17 0 17 -11 0 -11 2 1 10 13 9 13 10 0 11 -8 1 -18 1 -21 1 -3 -1 -3 13
-1 30 4 24 2 29 -9 23 -11 -6 -11 -5 -2 5 9 10 9 16 -2 26 -8 8 -12 23 -10 34
2 11 0 18 -5 15 -4 -3 -11 8 -15 25 -4 16 -11 30 -16 30 -6 0 -7 4 -4 10 3 5
0 7 -9 4 -11 -4 -14 1 -12 20 2 14 -1 23 -6 20 -11 -7 -38 14 -38 29 0 6 7 2
15 -9 14 -18 14 -17 4 9 -7 15 -19 27 -28 27 -14 0 -14 2 -1 10 11 7 11 10 2
10 -7 0 -10 4 -7 10 3 5 1 10 -5 10 -6 0 -9 4 -5 9 3 5 -2 17 -11 25 -11 12
-12 16 -2 16 8 0 9 3 3 8 -5 4 -12 16 -13 27 -2 11 -7 22 -10 25 -8 6 -13 34
-14 78 0 17 -5 32 -10 32 -6 0 -6 5 1 14 9 10 8 16 -4 26 -13 10 -13 15 -3 21
9 6 8 10 -5 15 -9 3 -17 10 -17 16 0 5 6 6 13 2 6 -4 4 1 -5 12 -13 15 -15 23
-7 31 8 8 7 13 -2 18 -8 5 -10 4 -5 -3 4 -7 2 -12 -3 -12 -6 0 -11 9 -11 21 0
11 -4 18 -8 15 -4 -2 -8 3 -8 12 -1 30 -9 46 -29 63 -17 14 -18 19 -5 33 7 10
9 16 4 15 -23 -4 -34 3 -34 21 0 11 -6 20 -12 20 -9 0 -8 4 2 10 13 8 12 10
-4 10 -12 0 -16 5 -12 15 3 8 1 15 -5 15 -6 0 -9 7 -6 14 4 10 1 13 -9 9 -9
-3 -14 2 -14 16 0 12 -4 21 -10 21 -5 0 -7 7 -4 15 4 10 0 15 -11 15 -12 0
-16 6 -12 20 3 11 1 18 -4 14 -5 -3 -17 0 -26 6 -17 11 -17 11 0 6 9 -3 17 -2
17 3 0 5 -10 11 -22 14 -12 4 -19 9 -16 12 3 4 -5 18 -18 32 -13 14 -24 32
-24 39 0 8 -7 14 -16 14 -8 0 -12 5 -9 10 3 6 -1 10 -9 10 -9 0 -15 3 -14 8 4
10 -28 53 -34 46 -3 -3 -5 3 -5 13 1 11 -4 17 -12 15 -12 -3 -12 0 -1 12 12
16 4 22 -23 17 -5 -1 -5 3 -2 9 4 6 -1 18 -11 26 -18 13 -18 14 1 8 12 -3 9 1
-8 11 -15 9 -25 20 -22 25 3 5 1 11 -5 15 -6 4 -7 11 -4 17 5 7 1 9 -8 5 -12
-4 -15 0 -13 19 1 14 0 22 -3 20 -9 -9 -32 22 -32 44 0 12 -4 18 -10 15 -6 -4
-10 5 -10 20 0 15 -4 24 -10 20 -5 -3 -10 3 -10 15 0 13 -4 19 -12 14 -7 -5
-8 -3 -3 6 5 8 1 18 -10 27 -11 7 -13 13 -6 13 8 0 7 5 -4 16 -9 10 -14 25
-12 36 3 10 2 16 -2 13 -11 -6 -42 64 -35 78 4 7 4 9 -1 5 -11 -10 -38 20 -29
33 4 7 3 9 -3 6 -6 -4 -16 6 -22 23 -5 17 -15 30 -22 30 -9 0 -8 4 1 15 10 12
8 14 -9 10 -12 -2 -19 0 -16 6 4 5 1 9 -5 9 -6 0 -9 4 -5 9 3 5 -1 15 -8 23
-7 7 -16 21 -20 31 -3 9 -14 17 -22 17 -9 0 -14 4 -10 9 3 5 -5 17 -17 25 -12
9 -19 16 -15 16 5 0 1 7 -7 16 -9 8 -13 20 -10 26 4 7 2 8 -4 4 -7 -4 -12 -1
-12 9 0 10 -5 13 -12 9 -8 -5 -9 -2 -5 9 4 10 1 17 -6 17 -7 0 -14 11 -15 26
-1 14 -7 34 -13 46 -8 15 -8 19 1 13 8 -5 8 -1 -1 13 -7 12 -17 18 -21 16 -7
-5 -10 3 -7 22 0 3 -11 16 -26 30 -14 13 -23 24 -20 24 4 0 0 7 -9 15 -8 8
-19 15 -24 15 -6 0 -13 7 -16 16 -4 10 -12 14 -22 10 -11 -4 -15 -2 -11 6 5
14 -17 40 -26 32 -3 -3 -8 4 -12 17 -5 15 -9 18 -15 9 -6 -9 -10 -6 -15 10 -6
18 -9 20 -17 9 -7 -10 -8 -8 -5 9 5 20 3 21 -9 11 -12 -10 -15 -10 -12 2 2 8
-3 13 -10 11 -9 -2 -11 4 -7 18 4 11 3 20 -2 19 -20 -3 -34 2 -28 11 3 6 1 10
-6 10 -7 0 -9 3 -6 7 4 3 -3 11 -15 17 -12 6 -22 20 -24 30 -3 22 -24 37 -39
28 -5 -3 -5 1 2 9 10 12 8 17 -8 27 -10 7 -19 19 -19 28 0 9 -5 12 -12 8 -8
-5 -9 -2 -5 10 4 10 3 15 -3 11 -6 -3 -10 -1 -10 4 0 6 -7 11 -15 11 -8 0 -14
3 -14 8 3 20 -2 32 -13 26 -6 -4 -8 -3 -5 3 8 13 -27 55 -39 45 -4 -4 -2 1 6
11 7 10 9 17 4 16 -21 -4 -35 2 -29 11 3 6 2 10 -4 10 -5 0 -13 9 -16 20 -4
11 -11 17 -17 14 -7 -5 -9 -1 -5 9 5 13 1 17 -14 17 -11 0 -18 4 -14 9 7 13
-40 63 -50 53 -4 -4 -4 3 -1 15 6 18 4 22 -8 17 -12 -4 -16 0 -16 16 0 16 -4
20 -16 16 -8 -3 -12 -2 -9 4 3 6 1 10 -4 10 -6 0 -11 6 -11 14 0 8 -9 18 -20
21 -11 3 -20 12 -20 18 0 7 -10 19 -21 27 -12 8 -36 28 -53 45 -17 16 -34 29
-38 27 -5 -1 -8 5 -8 14 0 8 -4 12 -10 9 -5 -3 -10 -1 -10 5 0 6 -4 9 -9 5 -5
-3 -12 4 -16 15 -4 11 -10 18 -14 16 -11 -7 -41 31 -33 40 4 5 0 3 -8 -3 -11
-8 -18 -8 -27 2 -6 7 -9 16 -6 19 4 3 1 6 -6 6 -16 0 -42 26 -34 34 4 3 1 6
-6 6 -7 0 -30 18 -51 40 -20 21 -39 38 -41 36 -2 -1 -12 6 -21 16 -10 10 -16
18 -13 18 3 0 -5 12 -19 27 -14 15 -22 31 -19 36 3 6 1 7 -6 3 -6 -4 -8 -13
-5 -19 4 -7 -6 3 -23 20 -16 18 -33 30 -36 26 -4 -3 -7 1 -7 10 0 15 -11 22
-32 18 -5 0 -8 4 -8 10 0 5 -5 7 -12 3 -7 -4 -8 -3 -4 4 4 6 -4 16 -16 23 -13
7 -31 21 -40 31 -9 11 -19 19 -22 19 -3 -1 -7 2 -7 7 -1 4 -14 19 -29 34 -16
14 -25 29 -22 33 4 3 -1 3 -11 -1 -11 -4 -17 -1 -17 8 0 8 -11 21 -25 28 -13
7 -22 17 -19 22 3 4 -5 8 -17 8 -12 0 -20 3 -16 6 3 4 -1 14 -10 23 -9 9 -19
14 -21 11 -3 -3 -8 5 -13 18 -5 12 -16 22 -26 22 -15 0 -16 2 -3 10 10 6 11
10 3 10 -15 0 -53 31 -53 43 0 5 -13 21 -30 37 -16 15 -26 30 -23 34 3 3 -1 6
-10 6 -9 0 -17 7 -17 17 0 9 -3 14 -6 11 -3 -4 -21 9 -41 28 -19 19 -39 32
-44 28 -5 -3 -9 0 -9 6 0 15 -55 70 -70 70 -6 0 -9 4 -6 8 7 11 -30 42 -40 34
-4 -4 -4 -2 -1 5 8 13 -20 46 -33 38 -5 -3 -7 3 -5 14 2 14 -1 18 -11 14 -9
-3 -14 2 -14 17 0 16 -4 20 -16 16 -8 -3 -12 -2 -9 4 3 6 1 10 -4 10 -6 0 -11
10 -11 23 0 12 -3 17 -8 11 -5 -7 -14 -5 -27 9 -11 11 -14 17 -5 13 9 -5 8 -2
-2 7 -10 8 -18 19 -18 26 0 6 -9 11 -20 11 -12 0 -20 7 -20 16 0 10 -6 14 -14
11 -10 -4 -13 -1 -9 9 3 7 0 14 -7 14 -7 0 -10 7 -6 16 3 8 2 13 -2 11 -4 -2
-15 4 -24 15 -10 10 -16 18 -13 18 3 0 0 6 -7 14 -7 8 -15 14 -18 14 -20 -1
-29 5 -35 22 -3 11 -12 19 -18 17 -7 -1 -11 4 -9 11 1 6 -2 12 -8 12 -5 0 -10
11 -10 25 0 14 -5 25 -11 25 -8 0 -8 4 -2 13 6 6 9 20 8 30 -2 9 1 17 6 17 6
0 7 5 4 10 -3 6 1 13 9 16 9 3 13 10 10 15 -3 5 2 9 11 9 10 0 13 5 9 12 -5 8
0 9 14 6 12 -4 20 -2 16 3 -3 5 0 9 5 9 6 0 11 8 12 18 0 15 1 15 8 -2 7 -18
8 -18 14 -2 4 11 13 16 22 12 8 -3 15 -1 15 4 0 5 9 7 21 5 16 -3 18 -1 10 9
-8 10 -4 12 18 8 16 -2 32 1 35 7 4 6 12 11 17 11 6 0 7 -5 3 -12 -4 -6 3 -4
16 5 18 13 27 14 37 5 11 -9 13 -8 11 2 -2 7 3 15 11 18 9 3 11 0 7 -9 -4 -8
0 -5 8 5 9 11 16 14 16 7 0 -7 5 -9 10 -6 6 4 7 12 3 18 -4 8 -1 7 9 -1 11 -9
18 -10 23 -2 3 5 17 10 31 10 13 0 24 5 24 11 0 6 9 8 23 4 17 -5 18 -4 7 4
-12 8 -11 11 5 17 11 4 27 16 36 26 10 10 21 17 27 16 5 -2 11 2 13 7 5 15 50
36 62 28 5 -3 7 -1 4 4 -8 13 14 33 40 38 10 1 17 8 15 15 -1 6 2 9 8 5 5 -3
10 -2 10 3 0 6 8 9 18 8 9 0 16 4 15 11 -2 8 4 10 14 6 12 -5 14 -3 8 7 -5 7
-4 11 1 8 15 -9 56 11 48 23 -4 8 -3 9 5 5 16 -10 53 3 45 16 -5 7 -1 9 9 5 9
-3 17 -1 20 6 2 7 12 12 23 12 11 0 18 6 16 14 -2 11 0 12 10 4 15 -12 42 9
30 23 -4 4 -2 4 5 1 6 -4 18 -1 26 7 8 8 17 12 21 9 3 -4 6 -1 6 6 0 7 5 9 10
6 6 -3 10 -1 10 4 0 6 6 11 14 11 8 0 17 7 20 16 3 8 10 13 15 10 5 -3 12 1
15 10 5 14 9 14 24 3 9 -7 14 -10 10 -5 -9 11 32 50 57 53 11 2 25 9 30 16 6
6 17 13 25 15 8 2 18 8 21 14 4 6 13 7 20 2 10 -6 10 -3 -1 11 -9 11 -10 16
-2 11 6 -4 12 -2 12 3 0 6 6 10 13 9 6 -2 11 3 9 10 -1 6 1 11 5 10 17 -3 83
33 78 42 -3 6 3 10 13 10 13 0 19 6 18 17 0 11 6 18 19 18 21 0 71 45 67 59
-2 5 5 3 14 -5 12 -9 15 -9 10 -1 -4 6 -3 12 3 12 6 0 8 7 5 15 -4 8 -1 15 5
15 6 0 11 -6 12 -12 0 -7 5 -1 11 15 5 15 14 25 19 21 5 -3 9 1 9 8 0 17 38
50 50 43 4 -3 6 4 3 14 -3 14 0 19 14 18 12 -1 17 4 15 16 -2 9 2 17 7 17 5 0
13 9 16 20 4 11 10 18 15 15 9 -6 22 53 14 66 -3 5 -9 7 -14 4 -4 -3 -7 6 -6
20 2 13 0 22 -4 20 -4 -3 -14 3 -21 12 -8 9 -9 14 -3 10 6 -3 11 0 11 7 0 7
-7 13 -16 12 -11 -1 -15 6 -13 18 2 11 -4 26 -13 33 -10 7 -15 19 -12 27 4 9
3 15 -1 15 -28 -5 -35 2 -16 17 10 8 13 13 7 9 -7 -3 -13 -1 -13 5 0 6 -3 9
-7 7 -5 -3 -9 5 -9 16 -3 33 -8 51 -17 58 -4 3 -9 16 -10 27 -1 12 -5 22 -10
22 -5 0 -3 8 4 17 11 13 11 15 1 9 -11 -6 -13 0 -12 25 1 19 1 39 0 44 -1 6
-2 14 -1 19 1 5 -5 4 -13 -4 -21 -16 -21 -6 0 14 8 9 11 16 5 16 -6 0 -11 14
-11 31 0 19 -4 28 -11 23 -8 -4 -8 0 0 15 8 13 8 21 2 21 -7 0 -7 9 -1 26 6
14 7 23 2 20 -4 -2 -13 7 -19 21 -10 21 -10 23 3 13 9 -8 14 -9 14 -2 0 6 -4
13 -10 17 -5 3 -7 12 -3 20 3 9 -1 15 -8 15 -11 0 -11 2 0 9 13 8 13 12 0 27
-9 11 -9 15 -1 10 7 -4 12 -1 12 9 0 10 -5 13 -12 9 -9 -5 -9 -2 1 9 11 14 11
20 0 34 -10 11 -10 14 -1 9 7 -4 12 -2 12 6 0 8 -6 20 -12 27 -8 9 -8 11 -2 8
7 -4 14 -1 16 6 7 17 -2 38 -13 32 -5 -4 -6 1 -3 9 3 9 10 13 15 10 5 -3 6 2
3 10 -3 9 -10 16 -16 16 -5 0 -2 7 6 16 12 11 13 20 6 33 -5 10 -6 21 -3 25 3
3 0 6 -8 6 -12 0 -12 2 0 9 13 8 13 12 0 27 -8 10 -9 15 -3 11 7 -4 15 0 18 9
3 8 2 12 -3 9 -5 -3 -12 -1 -16 5 -3 5 1 10 9 10 8 0 18 5 22 12 5 8 2 9 -9 5
-20 -8 -22 4 -4 22 10 10 8 11 -8 6 -18 -6 -18 -5 -3 7 12 11 14 18 6 33 -9
15 -8 17 8 11 17 -6 17 -5 -2 15 -10 12 -14 19 -8 16 7 -4 14 2 17 13 3 11 2
18 -2 16 -4 -3 -7 8 -6 24 0 15 3 26 7 23 5 -2 8 0 8 6 0 5 -6 12 -12 14 -9 4
-10 8 -2 14 6 4 14 17 17 27 6 16 5 17 -8 6 -9 -8 -15 -8 -15 -2 0 6 5 14 10
17 6 3 10 15 10 26 0 14 4 18 13 13 7 -5 6 0 -3 11 -12 14 -12 19 -2 23 10 3
8 8 -5 19 -10 8 -13 12 -6 9 6 -4 14 -2 18 4 3 5 0 10 -7 10 -10 0 -10 2 1 9
9 6 10 10 2 16 -9 5 -9 10 0 21 9 11 9 14 0 14 -8 0 -7 6 3 16 18 17 21 28 6
19 -5 -3 -10 1 -10 10 0 10 5 14 13 9 9 -5 9 -4 0 6 -7 7 -9 21 -4 34 4 11 6
45 5 74 -2 30 1 50 6 47 6 -3 7 1 4 9 -3 9 -11 16 -18 17 -6 0 -2 4 9 9 11 5
14 9 8 9 -7 1 -13 6 -13 12 0 5 4 8 8 5 5 -3 9 1 9 9 0 8 -4 12 -9 9 -10 -6
-6 26 6 45 7 10 6 12 -4 6 -10 -6 -12 -4 -7 7 3 9 0 21 -6 27 -9 9 -8 10 7 5
15 -6 17 -4 10 7 -12 19 -12 33 1 41 6 5 6 8 -2 8 -7 0 -13 5 -13 11 0 5 4 7
10 4 6 -3 7 1 4 9 -3 9 -11 13 -18 10 -6 -3 -2 2 8 10 15 12 16 16 5 16 -8 0
-10 3 -4 8 6 4 11 13 13 21 3 12 1 12 -14 0 -16 -13 -16 -12 -5 9 6 12 9 22 5
22 -3 0 0 8 7 17 12 14 12 16 0 8 -11 -6 -13 -4 -8 7 3 9 0 21 -6 27 -9 9 -8
11 4 6 10 -4 16 0 16 9 0 8 -4 13 -9 10 -4 -3 -8 -1 -8 5 0 5 5 13 11 17 8 4
7 9 -2 14 -10 7 -10 12 -1 22 9 11 9 18 -1 28 -8 8 -8 11 -1 7 7 -4 14 0 18 8
3 8 0 15 -7 15 -8 0 -6 4 3 10 8 5 11 10 5 10 -17 0 -12 70 5 70 9 0 11 3 5 8
-15 10 -18 42 -4 42 9 0 9 3 0 14 -9 10 -9 16 -1 21 8 5 8 10 0 20 -8 10 -8
15 0 20 8 5 7 11 -2 23 -11 13 -11 14 2 7 13 -7 13 -6 2 7 -10 13 -10 17 0 21
10 4 10 8 -2 16 -11 8 -12 11 -2 11 8 0 10 5 6 12 -15 24 -12 49 5 43 11 -4
10 0 -5 16 -10 12 -13 19 -6 15 6 -4 12 -2 12 3 0 6 -6 11 -12 11 -10 0 -9 3
1 9 9 6 10 10 2 16 -9 5 -9 10 0 21 7 9 8 14 1 14 -8 0 -9 28 -2 38 7 7 5 29
-3 40 -6 8 -6 12 2 12 6 0 11 5 11 11 0 5 -6 7 -12 3 -9 -5 -9 -2 1 9 10 13
10 17 1 17 -10 0 -10 3 0 15 10 12 10 15 -1 15 -8 0 -6 5 6 13 14 11 15 16 5
22 -9 6 -11 4 -5 -6 5 -8 4 -11 0 -6 -13 11 -13 47 -1 40 6 -3 5 0 -1 8 -7 7
-13 17 -13 22 0 4 6 5 13 1 9 -6 9 -4 1 7 -16 21 -24 59 -12 59 7 0 7 4 0 13
-6 7 -7 18 -2 26 9 16 2 43 -9 36 -10 -5 -7 26 3 43 4 7 2 12 -5 12 -8 0 -8 4
1 15 9 10 9 15 1 15 -6 0 -11 5 -11 11 0 5 5 7 12 3 8 -5 8 -3 2 7 -13 20 -12
69 0 69 6 0 4 5 -4 10 -8 5 -11 10 -6 10 5 0 3 7 -4 15 -7 8 -8 15 -3 15 12 0
10 36 -2 47 -4 5 -5 3 -1 -4 3 -6 3 -14 -2 -17 -4 -2 -8 6 -8 19 0 13 4 21 8
19 4 -3 8 0 8 5 0 6 -5 11 -11 11 -5 0 -7 5 -4 10 3 6 2 10 -4 10 -10 0 -9 19
2 37 5 9 3 11 -6 7 -10 -3 -14 3 -13 23 1 15 -6 33 -14 39 -12 10 -12 15 -2
27 11 13 10 17 -5 26 -10 6 -14 11 -10 11 5 0 1 7 -7 16 -12 11 -13 20 -6 34
7 13 5 21 -5 30 -9 7 -13 20 -10 29 2 9 0 23 -5 31 -5 9 -5 19 2 27 7 9 6 14
-6 19 -13 5 -15 14 -11 35 4 17 2 29 -4 29 -5 0 -8 9 -6 20 2 11 -2 20 -8 20
-7 0 -6 4 3 10 13 9 13 10 0 10 -13 0 -13 1 0 10 11 7 11 10 2 10 -7 0 -10 5
-7 10 3 6 0 10 -7 10 -9 0 -9 3 2 10 8 5 10 10 5 10 -6 0 -10 12 -9 28 0 15
-6 33 -15 40 -9 8 -11 11 -5 8 7 -3 14 1 18 9 3 8 0 14 -7 12 -7 -1 -11 6 -9
17 2 10 -1 15 -7 12 -6 -4 -8 2 -6 14 2 11 -1 22 -6 25 -5 4 -7 11 -4 16 4 5
1 9 -6 9 -8 0 -8 4 1 15 9 10 9 15 1 15 -6 0 -11 14 -11 31 0 16 -4 28 -9 25
-11 -7 -9 13 3 33 7 11 5 13 -5 9 -11 -4 -14 1 -13 23 1 16 -2 29 -7 29 -4 0
-6 7 -2 16 4 11 -1 23 -13 32 -16 12 -16 14 -1 9 20 -7 22 6 4 25 -11 11 -17
40 -20 96 0 6 -4 12 -8 12 -4 0 -10 7 -13 16 -3 8 -2 12 4 9 6 -3 10 -2 10 4
0 5 -5 13 -10 16 -8 5 -7 11 1 21 10 12 9 13 -6 8 -15 -6 -16 -4 -5 16 8 15 8
20 1 16 -6 -4 -11 -2 -11 3 0 6 6 11 13 11 7 0 6 4 -4 10 -10 6 -15 21 -13 45
2 20 -1 33 -5 30 -5 -2 -11 4 -14 15 -3 11 0 20 5 20 7 0 6 5 -1 13 -6 8 -8
17 -4 20 3 4 -1 7 -10 7 -9 0 -16 3 -16 8 3 18 -2 32 -17 46 -12 12 -12 16 -2
16 11 0 11 2 0 9 -7 4 -15 17 -16 27 -2 10 -8 18 -14 17 -6 -2 -9 6 -7 17 2
11 -4 24 -13 30 -12 6 -13 9 -3 10 10 0 11 3 2 13 -6 8 -8 17 -4 20 3 4 1 7
-6 7 -8 0 -11 7 -7 15 4 10 -2 19 -17 25 -12 5 -18 9 -13 9 12 1 -42 51 -55
51 -6 0 -7 5 -4 10 3 6 -1 10 -9 10 -9 0 -15 6 -13 13 1 6 -3 11 -10 10 -7 -2
-10 4 -7 12 4 8 -1 17 -10 21 -9 3 -16 15 -16 25 0 10 -4 19 -10 19 -5 0 -12
11 -16 25 -3 14 -10 25 -15 25 -5 0 -6 6 -3 14 3 8 1 17 -5 20 -6 4 -7 14 -4
24 6 15 4 15 -9 4 -14 -11 -16 -10 -11 7 3 13 1 21 -6 21 -7 0 -10 4 -7 9 3 4
-1 17 -9 27 -8 10 -15 29 -15 42 0 12 -4 22 -10 22 -5 0 -10 11 -10 24 0 14
-5 28 -10 31 -6 4 -8 11 -5 16 4 5 1 9 -5 9 -7 0 -9 7 -6 16 3 8 2 12 -4 9 -6
-3 -10 2 -10 12 0 11 -5 24 -12 31 -7 7 -8 12 -4 12 5 0 3 7 -4 15 -7 8 -9 15
-5 15 4 0 2 7 -6 16 -14 17 -20 56 -7 48 4 -3 8 2 8 11 0 9 5 13 10 10 26 -16
28 9 4 41 -15 19 -24 40 -20 49 3 9 2 14 -3 11 -4 -3 -17 4 -27 16 -11 12 -13
18 -6 14 6 -4 12 -2 12 3 0 6 -5 11 -12 11 -6 0 -8 3 -5 7 4 3 0 15 -10 25 -9
10 -13 18 -9 18 4 0 0 7 -8 16 -9 8 -14 20 -10 25 3 5 2 9 -3 8 -20 -3 -34 2
-28 11 3 5 -3 18 -15 30 -11 11 -20 24 -20 28 0 4 -9 14 -19 22 -11 7 -18 17
-15 22 3 4 -2 8 -10 8 -9 0 -16 7 -16 15 0 9 -7 18 -15 21 -14 6 -31 41 -27
57 1 5 -1 7 -5 4 -5 -2 -16 4 -25 15 -10 10 -16 18 -13 18 3 0 -3 9 -12 19
-37 40 -48 56 -45 63 1 5 -2 8 -8 8 -5 0 -10 7 -10 16 0 8 -3 13 -7 11 -5 -3
-14 1 -21 9 -7 8 -10 14 -7 14 3 0 -16 21 -42 47 -27 26 -47 51 -45 56 1 5 -1
7 -5 4 -5 -2 -16 4 -25 15 -10 10 -15 18 -12 18 3 0 -8 13 -25 29 -16 15 -27
31 -24 35 3 3 -1 6 -9 6 -9 0 -19 7 -22 16 -3 8 -10 12 -16 9 -5 -3 -10 -2
-10 4 0 14 -96 111 -110 111 -6 0 -8 5 -5 10 3 6 -2 10 -11 10 -10 0 -14 3
-11 6 3 4 -8 20 -24 35 -17 16 -28 29 -24 29 5 0 -2 9 -15 20 -12 11 -27 17
-32 14 -4 -3 -7 0 -6 8 2 7 -2 12 -9 11 -6 -2 -15 6 -18 17 -4 11 -10 20 -14
20 -13 0 -60 47 -54 54 4 3 -1 6 -10 6 -11 0 -14 5 -10 15 3 9 2 15 -3 14 -5
-1 -16 -1 -24 0 -13 1 -13 2 0 11 13 8 12 10 -3 10 -10 0 -20 7 -23 15 -4 8
-10 13 -14 10 -8 -5 -24 24 -22 37 1 4 -4 5 -12 2 -8 -3 -16 3 -19 15 -3 12
-13 24 -24 27 -10 4 -32 22 -50 40 -17 18 -34 30 -37 26 -3 -3 -6 -1 -6 5 0
13 -55 73 -67 73 -5 0 -15 9 -23 19 -7 11 -17 18 -22 15 -4 -3 -8 2 -8 10 0 9
-7 16 -15 16 -9 0 -20 10 -25 23 -5 12 -9 18 -9 13 -1 -5 -11 2 -24 15 -13 13
-30 25 -38 27 -7 2 -19 10 -25 17 -6 8 -14 12 -17 8 -4 -3 -7 -1 -7 5 0 7 -7
12 -15 12 -8 0 -15 5 -15 10 0 6 -5 10 -11 10 -7 0 -18 8 -26 18 -9 10 -11 11
-7 2 4 -8 -5 -3 -21 13 -15 15 -34 27 -41 27 -8 0 -14 4 -14 8 0 4 -16 14 -35
21 -19 7 -35 16 -35 21 0 5 -16 14 -34 21 -19 7 -32 17 -29 23 4 5 0 7 -10 3
-9 -3 -26 2 -39 12 -13 10 -29 16 -37 13 -9 -3 -11 0 -6 8 6 10 4 12 -8 7 -9
-3 -17 -2 -19 3 -2 5 -10 10 -18 12 -8 2 -21 9 -28 16 -7 6 -22 12 -33 12 -13
0 -18 4 -13 12 5 8 2 9 -10 5 -10 -4 -19 -1 -22 8 -3 7 -11 12 -19 9 -7 -3
-20 2 -29 11 -9 9 -16 13 -16 9 0 -3 -7 -1 -15 6 -8 7 -15 9 -15 5 0 -5 -8 -1
-17 7 -28 24 -47 33 -38 19 6 -10 2 -10 -16 0 -13 7 -27 13 -31 14 -3 0 -10 3
-14 8 -4 4 -16 7 -26 7 -10 0 -18 4 -18 10 0 5 -6 7 -14 4 -8 -3 -32 3 -53 13
-21 10 -40 18 -43 19 -3 1 -20 5 -37 9 -18 4 -33 11 -33 16 0 5 -9 9 -20 9
-11 0 -28 4 -38 9 -41 21 -69 31 -94 34 -15 1 -30 6 -34 9 -3 4 -12 4 -20 1
-8 -3 -14 -1 -14 4 0 5 -10 9 -22 8 -13 -1 -29 2 -35 8 -7 5 -13 7 -13 4 0 -3
-15 -1 -32 4 -31 10 -61 17 -83 22 -5 2 -16 6 -22 10 -7 5 -13 5 -13 1 0 -4
-10 1 -22 12 -12 10 -18 13 -14 7 4 -7 4 -13 0 -13 -16 0 -90 24 -103 34 -12
9 -13 8 -6 -4 6 -12 5 -12 -5 -3 -8 8 -20 9 -36 3 -13 -5 -24 -6 -24 -2 0 10
-23 10 -79 0z m-4001 -3488 c0 -5 -5 -10 -11 -10 -5 0 -7 5 -4 10 3 6 8 10 11
10 2 0 4 -4 4 -10z m-775 -8420 c3 -5 -1 -10 -10 -10 -9 0 -13 5 -10 10 3 6 8
10 10 10 2 0 7 -4 10 -10z"/>
<path d="M12307 10689 c7 -7 15 -10 18 -7 3 3 -2 9 -12 12 -14 6 -15 5 -6 -5z"/>
<path d="M12510 9879 c0 -5 5 -7 10 -4 6 3 10 8 10 11 0 2 -4 4 -10 4 -5 0
-10 -5 -10 -11z"/>
<path d="M12517 9849 c7 -7 15 -10 18 -7 3 3 -2 9 -12 12 -14 6 -15 5 -6 -5z"/>
<path d="M12506 9826 c3 -8 13 -17 22 -21 13 -5 13 -2 -3 15 -21 24 -26 25
-19 6z"/>
<path d="M12512 9775 c-1 -14 2 -25 6 -25 5 0 8 9 7 20 -2 29 -10 33 -13 5z"/>
<path d="M12499 9717 c5 -12 5 -32 0 -44 -5 -14 -5 -23 1 -23 6 0 10 9 10 19
0 11 4 22 9 25 14 9 6 39 -12 42 -12 2 -14 -3 -8 -19z"/>
<path d="M12495 9630 c-3 -6 1 -7 9 -4 18 7 21 14 7 14 -6 0 -13 -4 -16 -10z"/>
<path d="M12501 9606 c-9 -10 -7 -17 6 -27 16 -12 17 -12 6 2 -10 12 -10 18
-1 27 7 7 9 12 6 12 -3 0 -11 -6 -17 -14z"/>
<path d="M12787 4109 c7 -7 15 -10 18 -7 3 3 -2 9 -12 12 -14 6 -15 5 -6 -5z"/>
</g>
</svg>
